<svg xmlns="http://www.w3.org/2000/svg" height="125.46" width="125.548" fill="#6a4d38"><defs><clipPath id="a" clipPathUnits="userSpaceOnUse"><path d="M0 94.164h94.944V0H0z"/></clipPath></defs><g clip-path="url(#a)" transform="matrix(1.33333 0 0 -1.33333 0 125.551)" fill-rule="evenodd"><path d="M90.284 65.774a47.233 47.233 0 01-8.508 13.097 333.208 333.208 0 00-1.975-3.78 43.055 43.055 0 006.421-10.012c1.34.242 2.695.467 4.062.695M90.009 50.6c.094-1.162.155-2.333.155-3.519 0-23.793-19.288-43.08-43.082-43.08-.786 0-1.566.023-2.342.064.134-.57.228-1.176.219-1.84A6.581 6.581 0 0044.555.07C45.392.025 46.234 0 47.082 0c25.96 0 47.082 21.12 47.082 47.081 0 2.09-.151 4.142-.416 6.16a38.596 38.596 0 00-3.74-2.642M4 47.081c0 23.794 19.288 43.082 43.082 43.082a42.872 42.872 0 0021.568-5.792 375.08 375.08 0 003.362 2.623 46.793 46.793 0 01-24.93 7.17C21.121 94.163 0 73.041 0 47.08 0 27.275 12.3 10.298 29.657 3.356c-.4 1.5-.562 3.068-.569 4.582C14.283 14.756 4 29.713 4 47.081"/><path d="M36.787 19.17c-1.857 9.002 7.01 16.95 11.896 9.252.26-7.42-6.18-15.77-11.896-9.252m10.295 28.913a2.583 2.583 0 100-5.167 2.583 2.583 0 000 5.167M38.77 9.257c7.738 2.722 16.312 9.663 14.54 19.826-.899 5.146-4.48 5-7.27 9.252 14.437 11.998 24.212 28.657 33.043 46.26H77.1c-7.446-5.66-21.91-16.982-28.417-26.434-2.603-3.78-4.593-9.313-7.27-13.878-4.542-7.745-15.124-21.231-6.608-31.061C33.425 8.602 33.6.834 38.77.666c3.268 1.727-1.385 4.604 0 8.59"/><path d="M55.953 42.96c13.963 5.203 30.578 7.754 38.99 18.505-9.414-1.38-18.118-3.47-27.755-4.626-2.135-6.235-7.031-9.711-11.235-13.878m-38.331 3.965c-5.123 10.84 12.89 11.066 14.54 5.287 2.177-7.632-9.099-8.032-14.54-5.287m-5.287 7.27c-4.223-12.249 8.425-15.99 21.808-13.878 3.784 4.815 5.85 9.964 1.983 15.86-4.893 7.461-20.91 6.373-23.79-1.982"/></g></svg>