<svg xmlns="http://www.w3.org/2000/svg" height="122.655" width="125.551" fill="#6a4d38"><defs><clipPath id="a" clipPathUnits="userSpaceOnUse"><path d="M0 91.991h94.163V0H0z"/></clipPath></defs><g clip-path="url(#a)" transform="matrix(1.33333 0 0 -1.33333 0 122.655)"><path d="M47.082 83.818a9.105 9.105 0 009.105-9.106 9.106 9.106 0 10-9.105 9.106"/><path d="M60.501 38.823l-26.839-26.84V27.06L60.501 53.9zm0-28.717H47.027l13.474 13.475zM33.662 55.5h13.199L33.662 42.302zm33.796 10.106H26.705a2.825 2.825 0 01-2.817-2.817v-4.47a2.826 2.826 0 012.817-2.818h.828V10.107h-.828a2.825 2.825 0 01-2.817-2.818V2.82A2.825 2.825 0 0126.705 0h40.753a2.825 2.825 0 012.817 2.818V7.29a2.827 2.827 0 01-2.817 2.818h-.826V55.5h.826a2.825 2.825 0 012.817 2.818v4.47a2.825 2.825 0 01-2.817 2.818"/><path d="M47.081 91.991c-26.002 0-47.08-21.079-47.08-47.08C0 29.481 7.42 15.787 18.887 7.2v.088c0 1.505.438 2.903 1.177 4.098C10.277 19.29 4 31.378 4 44.91c0 23.755 19.326 43.081 43.081 43.081 23.754 0 43.081-19.326 43.081-43.08 0-13.53-6.275-25.619-16.062-33.524a7.765 7.765 0 001.177-4.098v-.086c11.466 8.587 18.886 22.28 18.886 37.707 0 26.002-21.08 47.081-47.082 47.081"/></g></svg>