<svg xmlns="http://www.w3.org/2000/svg" height="118.16" width="125.548" fill="#6a4d38"><defs><clipPath id="a" clipPathUnits="userSpaceOnUse"><path d="M0 88.62h94.161V0H0z"/></clipPath></defs><g clip-path="url(#a)" transform="matrix(1.33333 0 0 -1.33333 0 118.16)"><path d="M87.19 66.196a429.552 429.552 0 01-1.68-5.223 42.782 42.782 0 004.651-19.435c0-14.24-6.95-26.885-17.634-34.733a12.82 12.82 0 003.14-2.666c11.24 8.605 18.494 22.151 18.494 37.4a46.85 46.85 0 01-6.972 24.657M9.516 18.283c.446 0 .896-.015 1.345-.024a42.805 42.805 0 00-6.86 23.28C4 65.293 23.325 84.62 47.08 84.62c6.78 0 13.198-1.58 18.911-4.383a22.236 22.236 0 002.44 3.26 46.863 46.863 0 01-21.35 5.123C21.078 88.62 0 67.541 0 41.538a46.835 46.835 0 016.235-23.402 33.34 33.34 0 003.281.147"/><path d="M37.67 41.435c.684 11.704 15.366 11.688 25.648 8.548.103-4.72-.516-10.162 1.315-13.152-7.042.852-17.078 4.4-26.963 4.604M53.454 6.579c.437 6.143-.872 14.024.657 19.07 4.528.077 9.56-.353 13.153.659 8.174 14.845 12.026 34.008 18.416 50.64v2.63c-.675 3.055-3.753 3.703-6.578 4.605h-.657c-10.6-3.431-11.957-16.104-14.466-27.623-15.795 4.144-32.3.06-32.885-15.125-4.528-.076-7.984-1.225-9.865-3.946-.572-6.71 1.569-10.705 6.577-11.84-1.238-5.337-3.641-9.511-7.234-12.492C14.167 12.544 4.936 14.76 1.5 11.18V8.55c3.15-3.86 12.855-1.175 19.072-1.971 6.593 3.929 8.458 12.587 11.838 19.728 4.674-.367 10.865.78 14.468-.656V5.92C39.052 5.416 31.432 4.706 27.806 0h44.72c-3.254 5.294-12.471 4.626-19.072 6.579"/></g></svg>