<svg xmlns="http://www.w3.org/2000/svg" height="28.281" width="29.425"><defs><clipPath id="a" clipPathUnits="userSpaceOnUse"><path d="M0 21.21h22.068V0H0z"/></clipPath></defs><g clip-path="url(#a)" transform="matrix(1.33333 0 0 -1.33333 0 28.28)"><path d="M15.839 9.184c-.104-.666-.713-1.451-1.438-1.492-1.278-.071-1.934 1.892-3.371 1.878-1.438.014-2.092-1.95-3.37-1.878-.726.04-1.334.827-1.438 1.492-.133.833.262 1.975.72 2.417.472.459 1.209.4 2.004.515.874.127 1.629.378 2.084.835 0 .016 0 .016 0 0 .456-.457 1.21-.708 2.083-.835.797-.116 1.534-.057 2.006-.515.459-.442.853-1.584.72-2.417M21.81 21.21h-.104c-.99-3.298-1.255-7.32-4.012-8.848-.51 1.438-1.761 2.097-3.188 2.726-.907.4-1.95 1.096-2.831 1.132-.213.008-.45.014-.643-.135-.193.149-.43.144-.642.135-.88-.036-1.923-.731-2.83-1.132-1.428-.63-2.68-1.288-3.19-2.726-2.755 1.53-3.02 5.551-4.01 8.848H.257c-.135-.292-.171-.686-.257-1.03 0-.822.234-9.2.823-12.19.532-2.696 2.606-4.643 4.629-5.916C6.862 1.188 9.099 0 11.034 0c1.934 0 4.17 1.189 5.58 2.075 2.027 1.273 4.1 3.22 4.63 5.916.592 2.99.824 11.368.824 12.19-.085.344-.121.738-.257 1.03" fill="#6a4d38"/></g></svg>