<svg xmlns="http://www.w3.org/2000/svg"  viewBox="0 0 492.609 134.503" height="134.503" width="492.609"><defs><clipPath id="a" clipPathUnits="userSpaceOnUse"><path d="M0 100.877h369.457V0H0z"/></clipPath></defs><g clip-path="url(#a)" transform="matrix(1.33333 0 0 -1.33333 0 134.503)"><path d="M114.894 91.092l2.873 4.927c2.602 4.482 5.92 1.847 4.14-1.505-1.367-2.567-3.386-3.353-7.012-3.422m-3.833-16.217c-2.12 0-3.798.479-5.13 1.232.612.718 1.23 1.607 1.776 2.532l5.988 10.367.957-.103c8.348-1.746 5.031-14.028-3.59-14.028m8.791 14.575c7.187 2.429 7.733 11.427.65 11.427-1.947 0-4.274-1.37-5.882-4.174l-9.58-16.56a13.77 13.77 0 00-1.37-2.018c-2.463 3.387-1.742 8.45 1.712 10.674l-1.437 1.813c-7.458-4.755-5.27-18.475 7.184-18.475 10.64 0 15.567 12.763 8.724 17.313" fill="#fff"/><path d="M236.18 81.683h-.17c-1.162 0-2.088-.958-2.088-2.12 0-.446.138-.856.343-1.199l-.034-.068c-1.676-2.873-5.747-2.326-3.626 1.37l2.703 4.687 1.71 2.908c2.497 4.242 5.919 2.566 3.764-1.129zm-73.08-1.778c-.922.684-1.505 1.778-1.505 3.216 0 2.532 2.465 6.671 4.482 6.671.787 0 1.334-.582 1.334-1.54 0-.58-.205-1.3-.684-2.12zm-3.728-3.456c-.788 0-1.437.48-1.437 1.37 0 .512.206 1.093.617 1.846l1.266 2.19c.274-1.54.958-2.875 2.258-3.695-.72-1.163-1.813-1.71-2.704-1.71m-26.788 4.857c-2.155-3.386-4.277-4.995-5.75-4.995-.786 0-1.23.547-.41 1.95l4.964 8.655c1.915 3.32 5.712 2.463 3.968-.752zm45.606 5.611c2.053 3.524 5.678 2.942 3.557-.752l-.512-.89c-1.711-2.908-4.004-2.84-5.337-2.36zm81.015-4.995l-.237-.274c-1.985-2.326-4.347-4.243-6.502-4.995.58.924 1.027 1.916 1.472 2.67l3.934 6.738c3.32 5.645-2.052 7.527-5.68 4.276l.719 1.233h-3.558l-5.564-9.655a.11.11 0 00-.011.006l-.241-.274c-1.607-1.745-3.592-2.6-5.371-2.634l3.354 5.781c2.155 3.73.172 7.253-3.183 7.253-2.736 0-4.856-1.095-6.91-4.654l-1.745-3.044-1.452-2.486-.191-.217c-2.565-2.977-5.062-5.337-6.637-5.337-.787 0-1.231.547-.411 1.95l5.132 8.998c1.539 2.703.07 4.653-1.916 4.653-1.54 0-3.182-.855-4.961-2.704l5.68 9.888h-3.558l-9.923-17.215-.204-.233a22.126 22.126 0 00-4.278-3.866c1.132 3.387.893 8.587 3.08 13.137l-2.67 1.438c-1.47-2.02-4.684-6.672-7.901-10.435l-.24-.274c-2.565-2.977-5.064-5.337-6.636-5.337-.787 0-1.232.547-.411 1.95l3.558 6.227c1.232 2.155.65 3.421-.513 4.824l-1.985 2.394c-.513.651-.513 1.37.205 2.053l-1.847 2.02c-2.02-1.814-2.19-3.833-.924-5.475l.308-.41c-1.574-2.224-3.695-5.235-6.021-7.972l-.238-.274c-2.567-2.977-5.852-5.337-8.35-5.337-2.188 0-3.488 1.368-1.846 4.242l.34.616c2.293-.958 6.606-.512 9.274 4.105l.513.89c1.916 3.284.068 5.748-2.841 5.748-2.872 0-5.165-1.505-6.671-4.106L171.7 81.89l-.214-.244c-1.608-1.779-3.626-2.6-5.371-2.634l3.354 5.781c.89 1.574 1.333 2.942 1.333 4.071 0 1.813-1.23 3.182-3.217 3.182-.853 0-1.607-.308-2.326-.787l4.518 7.835h-3.627l-9.975-17.234-.187-.214c-2.567-2.977-5.063-5.337-6.638-5.337-.786 0-1.232.547-.41 1.95l3.557 6.227c1.232 2.155.65 3.421-.512 4.824L150 91.704c-.513.651-.513 1.37.205 2.053l-1.846 2.02c-2.021-1.814-2.191-3.833-.925-5.475l.309-.41c-1.575-2.224-3.696-5.235-6.021-7.972l-.24-.274c-2.566-2.977-5.063-5.337-6.636-5.337-.788 0-1.233.547-.412 1.95l5.749 10.058h-2.021c.138 1.506-1.401 3.593-3.728 3.593-1.916 0-4.583-1.505-6.09-4.106l-4.994-8.62c-1.507-2.636-.444-5.065 2.429-5.065 1.436 0 3.215.924 4.926 2.327.17-1.369 1.267-2.327 3.08-2.327 2.94 0 6.329 3.147 9.272 6.57 1.71 1.983 3.045 3.762 5.885 7.628l.478-.582c.445-.582.615-1.3.205-2.018l-3.763-6.535c-1.504-2.635-.444-5.064 2.428-5.064 2.064 0 4.345 1.55 6.537 3.652v-.025c0-2.429 1.814-3.797 4.106-3.797 1.98 0 4.275 1.026 6.056 3.318.27-.034.51-.034.786-.034 1.32 0 3.118.504 4.724 1.404-.186-2.568 1.677-4.518 4.822-4.518 4.037 0 8.039 3.147 10.98 6.57 1.713 1.983 3.046 3.762 5.886 7.628l.478-.582c.445-.582.616-1.3.205-2.018l-3.763-6.535c-1.506-2.635-.445-5.064 2.428-5.064 2.944 0 6.33 3.147 9.273 6.57h-.001c2.019 2.325 3.799 4.823 5.063 6.5-1.401-3.697-.65-10.334-4.036-10.334-1.196 0-1.677 1.3-1.677 1.3l-2.224-1.164s.649-2.874 3.9-2.874c.342 0 .649.034.99.068.037 0 .07.034.105.034 1.872.248 3.734 1.136 5.466 2.364l-1.224-2.124h3.593l5.404 9.408c5.476 6.876 7.904 5.987 6.364 3.353l-4.62-8.04c-1.504-2.635-.443-5.064 2.43-5.064 2.068 0 4.355 1.556 6.552 3.667-.008-4.537 6.294-5.422 10.145-.553h.789c1.073 0 2.463.334 3.81.944l-6.48-11.242h3.593l10.64 18.51c3.969 5.405 6.468 3.42 5.544 1.812l-5.37-9.306c-.583-1.027-1.918-1.334-2.568 0l-2.018-.958s.649-2.874 3.899-2.874h.206c5.166.103 8.553 3.182 11.46 6.57-.208.555-.823 1.103-1.338 1.24M11.433 27.602l-5.718-5.716L0 27.603l5.717 5.716zm351.987.015l-5.716-5.715-5.716 5.717 5.717 5.715z" fill="#fff"/><path d="M46.795 27.396h2.083v8.324h3.275v2.085h-5.358zm14.893-1.528v12.685c0 1.794-1.068 3.325-2.564 4.07.297-.604.48-1.272.48-1.987V27.95a4.473 4.473 0 00-1.662-3.51c.924-.986 1.662-2.095 1.662-3.695V6.64c0-2.462-2.094-4.556-4.558-4.556H41.487V0H57.13c2.464 0 4.558 2.094 4.558 4.556v14.106c0 1.602-.738 2.71-1.662 3.695a4.472 4.472 0 011.662 3.511" fill="#636466"/><path d="M46.795 9.537h2.083v8.385h3.275v2.084h-5.358zm33.012 0h2.083v26.184h3.274v2.084h-5.357z" fill="#636466"/><path d="M92.136 42.623c.298-.602.479-1.27.479-1.986V6.643c0-2.463-2.093-4.557-4.556-4.557H76.975c-.718 0-1.386.183-1.987.48.744-1.496 2.274-2.564 4.07-2.564h11.085c2.463 0 4.556 2.094 4.556 4.557v33.994c0 1.795-1.068 3.325-2.563 4.07m20.68-15.227h2.083v8.324h3.276v2.085h-5.359zm12.245-9.042a4.469 4.469 0 012.586 4.064v16.135a4.557 4.557 0 01-2.566 4.098 4.558 4.558 0 00.483-2.015V24.501a4.467 4.467 0 00-2.585-4.064l3.078-18.352H120.4l.35-2.084h7.392zm-9.411 1.652h-2.834V2.086h-5.306V.002h7.39v17.92h1.1zm29.195-10.469h2.083v26.184h3.274v2.084h-5.357z" fill="#636466"/><path d="M157.173 42.623c.299-.602.48-1.27.48-1.986V6.643c0-2.463-2.093-4.557-4.556-4.557H142.01c-.717 0-1.385.183-1.985.48.743-1.496 2.272-2.564 4.068-2.564h11.086c2.463 0 4.556 2.094 4.556 4.557v33.994c0 1.795-1.067 3.325-2.563 4.07m20.683-33.086h2.083v26.184h3.275v2.084h-5.358z" fill="#636466"/><path d="M190.185 42.623c.298-.602.479-1.27.479-1.986V6.643c0-2.463-2.093-4.557-4.556-4.557h-13.561V.002h15.644c2.463 0 4.557 2.094 4.557 4.557v33.994c0 1.795-1.067 3.325-2.563 4.07m21.05.488V2.086h-5.306V.002h7.39v43.11zm32.887 0V2.086h-5.905l.598-2.084h7.39v43.11zM231.313 20.93V2.086h-5.307V.002h7.39v13.686zm32.261-3.008h6.107v2.084h-8.19c-.722 0-1.394.182-1.998.477a4.532 4.532 0 014.081-2.561m2.832-2.77l-2.083-.486V9.537h2.083zm10.246 27.471c.298-.602.48-1.27.48-1.986v-8.744l-5.368-1.243v-2.565l7.451 1.725v8.744c.001 1.794-1.067 3.324-2.563 4.069" fill="#636466"/><path d="M276.652 24.825c.298-.603.48-1.269.48-1.985V6.642c0-2.463-2.094-4.556-4.557-4.556H261.49a4.47 4.47 0 00-1.987.48c.744-1.496 2.274-2.564 4.07-2.564h11.085c2.463 0 4.557 2.094 4.557 4.556v16.198c.001 1.795-1.066 3.325-2.563 4.07m-12.329 12.979V27.397h2.083v8.324h3.276v2.084zm33.691-17.799h-.68V2.086h-5.305V.002h7.389v15.524zm15.137 23.105H310.4l-6.228-19.41 6.897-21.615h-6.006l.577-1.838.061-.246h7.451l-6.897 21.615zm17.38 0V2.086h-5.306V.002h7.39v43.11zm31.126-25.171l5.716 5.716 2.084-2.084-5.716-5.717zM9.67 17.924l5.718 5.717 2.084-2.084-5.717-5.717z" fill="#636466"/><path d="M48.194 23.965h-5.358V13.496h5.358zm0 17.798h-5.358V31.356h5.358zm7.452-9.853c0-1.416-.616-2.648-1.663-3.512.924-.984 1.663-2.093 1.663-3.693V10.602c0-2.463-2.094-4.557-4.558-4.557H35.446v43.107h15.643c2.464 0 4.557-2.031 4.557-4.557zm25.559 9.853h-5.357V13.496h5.357zm2.896 7.389c2.462 0 4.556-2.031 4.556-4.557V10.602c0-2.464-2.094-4.558-4.556-4.558H73.016c-2.526 0-4.559 2.094-4.559 4.558v33.993a4.547 4.547 0 004.559 4.557zm30.116-7.389h-5.358V31.356h5.358zm.491-35.718l-3.018 17.92h-2.833V6.045h-7.389v43.107h15.642c2.463 0 4.495-2.031 4.495-4.557V28.46a4.466 4.466 0 00-2.585-4.064l3.079-18.351zm31.535 35.718h-5.357V13.496h5.357zm2.896 7.389c2.463 0 4.556-2.031 4.556-4.557V10.602c0-2.464-2.093-4.558-4.556-4.558h-11.086c-2.525 0-4.558 2.094-4.558 4.558v33.993a4.547 4.547 0 004.558 4.557zm30.115-7.389h-5.357V13.496h5.357zm2.894 7.389c2.463 0 4.557-2.031 4.557-4.557V10.602c0-2.464-2.094-4.558-4.557-4.558h-15.642v43.108zm17.74 0h7.39V6.045h-7.39zm40.275 0V6.045h-7.39l-5.42 18.842V6.045h-7.39v43.107h7.328l5.42-17.674v17.674zm28.454-17.797c2.463 0 4.558-2.033 4.558-4.558V10.601c0-2.464-2.095-4.558-4.558-4.558h-11.085c-2.524 0-4.558 2.094-4.558 4.558v8.866l7.39 1.726v-7.697h5.358v10.468h-8.19a4.55 4.55 0 00-4.558 4.56v16.07a4.547 4.547 0 004.558 4.558h11.085c2.463 0 4.558-2.03 4.558-4.558v-8.743l-7.452-1.725v7.636h-5.358V31.355zm31.595-3.695l6.897-21.615h-7.451l-.061.246-5.543 17.674h-.68V6.045h-7.39v43.107h7.39V31.355h.557l5.666 17.797h7.512zm18.972 21.492h7.39V6.045h-7.39z" fill="#fff"/></g></svg>