<svg xmlns="http://www.w3.org/2000/svg" height="17.201" width="59.97"><defs><clipPath id="a" clipPathUnits="userSpaceOnUse"><path d="M0 12.9h44.978V0H0z"/></clipPath></defs><g clip-path="url(#a)" transform="matrix(1.33333 0 0 -1.33333 0 17.2)"><path d="M22.488 4.66c1.151-1.709 3.64-4.447 8.78-4.65 7.161-.277 13.71 5.217 13.71 7.281-2.759-2.494-7.368-2.717-9.93-1.695-3.78 1.508-3.122 4.494-5.875 6.447-1.563 1.11-3.785 1.176-5.688 0a5.212 5.212 0 01-.997-.81 5.144 5.144 0 01-.997.81c-1.903 1.176-4.125 1.11-5.689 0-2.752-1.953-2.094-4.938-5.873-6.447C7.366 4.573 2.76 4.797 0 7.291 0 5.227 6.547-.267 13.71.011c5.141.202 7.627 2.94 8.778 4.65" fill="#6a4d38"/></g></svg>