<svg xmlns="http://www.w3.org/2000/svg" height="26.667" width="28"><defs><clipPath id="a" clipPathUnits="userSpaceOnUse"><path d="M0 20h21V0H0z"/></clipPath></defs><g clip-path="url(#a)" transform="matrix(1.33333 0 0 -1.33333 0 26.667)"><path d="M21 19h-4l-6-6 2-2zm-11-8.5c.3 0 .5-.2.5-.5s-.2-.5-.5-.5-.5.2-.5.5.2.5.5.5M4 2c-1.1 0-2 .9-2 2s.9 2 2 2 2-.9 2-2-.9-2-2-2m0 12c-1.1 0-2 .9-2 2s.9 2 2 2 2-.9 2-2-.9-2-2-2m4 2c0 2.2-1.8 4-4 4s-4-1.8-4-4 1.8-4 4-4c.6 0 1.1.1 1.6.4L8 10 5.6 7.6c-.5.3-1 .4-1.6.4-2.2 0-4-1.8-4-4s1.8-4 4-4 4 1.8 4 4c0 .6-.1 1.1-.4 1.6L10 8l7-7h4L7.6 14.4c.3.5.4 1 .4 1.6" fill="#6a4d38"/></g></svg>